<svg xmlns="http://www.w3.org/2000/svg" viewBox="0 0 107.12 134.69">
  <defs>
    <style>.cls-1{fill:#fff;}</style>
  </defs>
  <title>Chair</title>
  <g id="Layer_1_Image" data-name="Layer 1 Image">
    <path class="cls-1" d="M307.18,84.43q-16.77,0-33.53,0a25.73,25.73,0,0,1-4.65-.34c-2.81-.52-4.42-2.07-3.83-5.2,1.54-8.12,3.14-16.22,4.56-24.37,1.7-9.85,3.37-19.71,4.79-29.61C275,21.41,277,20,280,19.45a25.31,25.31,0,0,1,4.26-.33q22.62,0,45.23,0c1.42,0,2.85.17,4.27.27,3.48.25,5.3,2,5.73,5.59.65,5.41,1.59,10.79,2.57,16.16,2.08,11.45,4.3,22.87,6.37,34.33,1.35,7.42,0,9-7.75,9Z" transform="translate(-253.44 -19.11)"/>
    <path class="cls-1" d="M345.84,153.71v-41.2c0-5.63-1.64-7.35-7.42-7.55-3.11-.11-6.24,0-9.36,0H277.19c-7,0-9,2-9,8.9v39.62c-3.28,0-6.25.35-9.1-.09-3.58-.55-5.65-3.52-5.65-7.17q0-21.28,0-42.56a7.34,7.34,0,0,1,6.9-7.77,49.66,49.66,0,0,1,5.46-.1h83.85a33.76,33.76,0,0,1,3.9.08c5.29.61,7,2.52,7,7.82q0,21.09,0,42.17c0,5.48-1.48,7.25-6.92,7.83A76.89,76.89,0,0,1,345.84,153.71Z" transform="translate(-253.44 -19.11)"/>
  </g>
</svg>
